<svg width="26" height="25" viewBox="0 0 26 25" fill="none" xmlns="http://www.w3.org/2000/svg">
<path d="M3.60009 2.79009C2.69254 2.60858 1.8458 3.30273 1.8458 4.22826V18.5079C1.8459 18.9965 2.22048 20.0238 3.38676 20.0559C4.55304 20.088 6.15233 20.1751 7.34576 20.4058C9.56867 20.8354 12.8457 22.2391 12.8457 22.2391V5.84158C12.8457 5.14246 12.3522 4.54052 11.6667 4.40341L3.60009 2.79009Z" stroke="white" stroke-linecap="round" stroke-linejoin="round"/>
<path d="M22.0913 2.78923C22.9989 2.60772 23.8456 3.30188 23.8456 4.22741V18.5071C23.8455 18.9957 23.4709 20.023 22.3046 20.0551C21.1384 20.0872 19.5391 20.1742 18.3457 20.4049C16.1227 20.8345 12.8457 22.2382 12.8457 22.2382V5.84073C12.8457 5.1416 13.3392 4.53966 14.0247 4.40255L22.0913 2.78923Z" stroke="white" stroke-linecap="round" stroke-linejoin="round"/>
</svg>
