<svg width="26" height="25" viewBox="0 0 26 25" fill="none" xmlns="http://www.w3.org/2000/svg">
<g clip-path="url(#clip0_8_4761)">
<path d="M7.65525 16.8751H8.15525C8.15525 16.6268 7.97304 16.4161 7.72734 16.3803L7.65525 16.8751ZM7.65525 22.8141H7.15525C7.15525 23.0163 7.27707 23.1986 7.46391 23.276C7.65074 23.3534 7.8658 23.3106 8.0088 23.1676L7.65525 22.8141ZM13.5167 16.9526V16.4526C13.3841 16.4526 13.257 16.5053 13.1632 16.599L13.5167 16.9526ZM1.84595 9.56944C1.84595 5.76797 4.92764 2.68628 8.72911 2.68628V1.68628C4.37536 1.68628 0.845947 5.21569 0.845947 9.56944H1.84595ZM7.72734 16.3803C4.40083 15.8956 1.84595 13.0304 1.84595 9.56944H0.845947C0.845947 13.5342 3.77237 16.8146 7.58315 17.3698L7.72734 16.3803ZM8.15525 22.8141V16.8751H7.15525V22.8141H8.15525ZM13.1632 16.599L7.30169 22.4605L8.0088 23.1676L13.8703 17.3061L13.1632 16.599ZM16.9624 16.4526H13.5167V17.4526H16.9624V16.4526ZM23.8456 9.56944C23.8456 13.3709 20.7639 16.4526 16.9624 16.4526V17.4526C21.3162 17.4526 24.8456 13.9232 24.8456 9.56944H23.8456ZM16.9624 2.68628C20.7639 2.68628 23.8456 5.76797 23.8456 9.56944H24.8456C24.8456 5.21569 21.3162 1.68628 16.9624 1.68628V2.68628ZM8.72911 2.68628H16.9624V1.68628H8.72911V2.68628Z" fill="white"/>
</g>
<defs>
<clipPath id="clip0_8_4761">
<rect width="25" height="25" fill="white" transform="translate(0.345703)"/>
</clipPath>
</defs>
</svg>
