<svg width="23" height="23" viewBox="0 0 23 23" fill="none" xmlns="http://www.w3.org/2000/svg">
<path fill-rule="evenodd" clip-rule="evenodd" d="M9.99398 3.35173C9.99398 4.37448 10.8231 5.20358 11.8458 5.20358C12.8686 5.20358 13.6977 4.37448 13.6977 3.35173C13.6977 2.32898 12.8686 1.49988 11.8458 1.49988C10.8231 1.49988 9.99398 2.32898 9.99398 3.35173ZM11.8458 0.499878C10.2708 0.499878 8.99398 1.7767 8.99398 3.35173C8.99398 4.92676 10.2708 6.20358 11.8458 6.20358C13.4209 6.20358 14.6977 4.92676 14.6977 3.35173C14.6977 1.7767 13.4209 0.499878 11.8458 0.499878ZM1.8457 3.35176C1.8457 4.37451 2.67481 5.20361 3.69756 5.20361C4.7203 5.20361 5.54941 4.37451 5.54941 3.35176C5.54941 2.32901 4.7203 1.49991 3.69756 1.49991C2.67481 1.49991 1.8457 2.32901 1.8457 3.35176ZM3.69756 0.499909C2.12252 0.499909 0.845703 1.77673 0.845703 3.35176C0.845703 4.9268 2.12252 6.20361 3.69756 6.20361C5.27259 6.20361 6.54941 4.9268 6.54941 3.35176C6.54941 1.77673 5.27259 0.499909 3.69756 0.499909ZM1.8457 11.4993C1.8457 12.522 2.67481 13.3511 3.69756 13.3511C4.7203 13.3511 5.54941 12.522 5.54941 11.4993C5.54941 10.4765 4.7203 9.64742 3.69756 9.64742C2.67481 9.64742 1.8457 10.4765 1.8457 11.4993ZM3.69756 8.64742C2.12252 8.64742 0.845703 9.92423 0.845703 11.4993C0.845703 13.0743 2.12252 14.3511 3.69756 14.3511C5.27259 14.3511 6.54941 13.0743 6.54941 11.4993C6.54941 9.92423 5.27259 8.64742 3.69756 8.64742ZM3.69756 21.5001C2.67481 21.5001 1.8457 20.671 1.8457 19.6483C1.8457 18.6255 2.67481 17.7964 3.69756 17.7964C4.7203 17.7964 5.54941 18.6255 5.54941 19.6483C5.54941 20.671 4.7203 21.5001 3.69756 21.5001ZM0.845703 19.6483C0.845703 18.0732 2.12252 16.7964 3.69756 16.7964C5.27259 16.7964 6.54941 18.0732 6.54941 19.6483C6.54941 21.2233 5.27259 22.5001 3.69756 22.5001C2.12252 22.5001 0.845703 21.2233 0.845703 19.6483ZM11.8458 13.3511C10.8231 13.3511 9.99398 12.522 9.99398 11.4993C9.99398 10.4765 10.8231 9.64742 11.8458 9.64742C12.8686 9.64742 13.6977 10.4765 13.6977 11.4993C13.6977 12.522 12.8686 13.3511 11.8458 13.3511ZM8.99398 11.4993C8.99398 9.92423 10.2708 8.64742 11.8458 8.64742C13.4209 8.64742 14.6977 9.92423 14.6977 11.4993C14.6977 13.0743 13.4209 14.3511 11.8458 14.3511C10.2708 14.3511 8.99398 13.0743 8.99398 11.4993ZM9.99398 19.6483C9.99398 20.671 10.8231 21.5001 11.8458 21.5001C12.8686 21.5001 13.6977 20.671 13.6977 19.6483C13.6977 18.6255 12.8686 17.7964 11.8458 17.7964C10.8231 17.7964 9.99398 18.6255 9.99398 19.6483ZM11.8458 16.7964C10.2708 16.7964 8.99398 18.0732 8.99398 19.6483C8.99398 21.2233 10.2708 22.5001 11.8458 22.5001C13.4209 22.5001 14.6977 21.2233 14.6977 19.6483C14.6977 18.0732 13.4209 16.7964 11.8458 16.7964ZM19.9939 5.20358C18.9711 5.20358 18.142 4.37448 18.142 3.35173C18.142 2.32898 18.9711 1.49988 19.9939 1.49988C21.0166 1.49988 21.8457 2.32898 21.8457 3.35173C21.8457 4.37448 21.0166 5.20358 19.9939 5.20358ZM17.142 3.35173C17.142 1.7767 18.4188 0.499878 19.9939 0.499878C21.5689 0.499878 22.8457 1.7767 22.8457 3.35173C22.8457 4.92676 21.5689 6.20358 19.9939 6.20358C18.4188 6.20358 17.142 4.92676 17.142 3.35173ZM18.142 11.4993C18.142 12.522 18.9711 13.3511 19.9939 13.3511C21.0166 13.3511 21.8457 12.522 21.8457 11.4993C21.8457 10.4765 21.0166 9.64742 19.9939 9.64742C18.9711 9.64742 18.142 10.4765 18.142 11.4993ZM19.9939 8.64742C18.4188 8.64742 17.142 9.92423 17.142 11.4993C17.142 13.0743 18.4188 14.3511 19.9939 14.3511C21.5689 14.3511 22.8457 13.0743 22.8457 11.4993C22.8457 9.92423 21.5689 8.64742 19.9939 8.64742ZM19.9939 21.5001C18.9711 21.5001 18.142 20.671 18.142 19.6483C18.142 18.6255 18.9711 17.7964 19.9939 17.7964C21.0166 17.7964 21.8457 18.6255 21.8457 19.6483C21.8457 20.671 21.0166 21.5001 19.9939 21.5001ZM17.142 19.6483C17.142 18.0732 18.4188 16.7964 19.9939 16.7964C21.5689 16.7964 22.8457 18.0732 22.8457 19.6483C22.8457 21.2233 21.5689 22.5001 19.9939 22.5001C18.4188 22.5001 17.142 21.2233 17.142 19.6483Z" fill="#C7CFD6"/>
</svg>
